<?xml version="1.0" encoding="utf-8"?>
<!-- Generator: Adobe Illustrator 16.0.0, SVG Export Plug-In . SVG Version: 6.00 Build 0)  -->
<!DOCTYPE svg PUBLIC "-//W3C//DTD SVG 1.1//EN" "http://www.w3.org/Graphics/SVG/1.1/DTD/svg11.dtd">
<svg version="1.1" id="Layer_1" xmlns="http://www.w3.org/2000/svg" xmlns:xlink="http://www.w3.org/1999/xlink" x="0px" y="0px"
	 width="207.504px" height="92.154px" viewBox="0 2.63 207.504 92.154" enable-background="new 0 2.63 207.504 92.154"
	 xml:space="preserve">
<g>
	<g enable-background="new    ">
		<path fill="#EF4136" d="M85.529,20.485V2.786h6.419v41.998h-6.419V26.304h-6.18v18.479h-6.42V2.786h6.42v17.699H85.529z"/>
		<path fill="#EF4136" d="M116.128,44.784h-6.359l-0.84-6.6h-6.66l-0.78,6.6h-5.939l6-42.059h8.52L116.128,44.784z M102.989,32.484
			h5.219l-2.58-20.999L102.989,32.484z"/>
		<path fill="#EF4136" d="M138.089,27.564v9.78c0,5.22-2.58,7.8-7.801,7.8h-3.18c-5.219,0-7.799-2.58-7.799-7.8V10.225
			c0-5.22,2.58-7.8,7.799-7.8h3.121c5.219,0,7.738,2.521,7.738,7.74v8.579h-6.299v-8.22c0-1.68-0.78-2.46-2.4-2.46h-1.08
			c-1.68,0-2.459,0.78-2.459,2.46v26.52c0,1.68,0.779,2.46,2.459,2.46h1.2c1.62,0,2.399-0.78,2.399-2.46v-9.48H138.089z"/>
		<path fill="#EF4136" d="M155.307,44.784l-6.24-20.579v20.579h-6.42V2.786h6.42v20.279l6.66-20.279h6.72l-7.2,20.639l6.96,21.359
			H155.307z"/>
	</g>
	<g enable-background="new    ">
		<path fill="#EF4136" d="M79.408,94.784h-6.419V52.786h6.419V94.784z"/>
		<path fill="#EF4136" d="M90.688,52.786v36.179h7.08v5.819h-13.5V52.786H90.688z"/>
		<path fill="#EF4136" d="M108.088,52.786v36.179h7.079v5.819h-13.499V52.786H108.088z"/>
		<path fill="#EF4136" d="M125.546,94.784h-6.419V52.786h6.419V94.784z"/>
		<path fill="#EF4136" d="M143.845,52.786h5.76v41.998h-6.96l-6.539-28.318l0.06,28.318h-5.76V52.786h7.499l6,26.099L143.845,52.786
			z"/>
		<path fill="#EF4136" d="M165.505,95.144h-3.42c-5.219,0-7.799-2.58-7.799-7.8V60.225c0-5.22,2.58-7.8,7.799-7.8h3.42
			c5.221,0,7.801,2.58,7.801,7.8v27.119C173.305,92.564,170.725,95.144,165.505,95.144z M164.485,58.065h-1.32
			c-1.68,0-2.459,0.78-2.459,2.46v26.52c0,1.68,0.779,2.46,2.459,2.46h1.32c1.62,0,2.4-0.78,2.4-2.46v-26.52
			C166.885,58.845,166.105,58.065,164.485,58.065z"/>
		<path fill="#EF4136" d="M184.466,94.784h-6.42V52.786h6.42V94.784z"/>
		<path fill="#EF4136" d="M207.504,80.504v6.84c0,5.22-2.579,7.8-7.8,7.8h-2.82c-5.219,0-7.739-2.58-7.739-7.74v-8.88h6.239v8.64
			c0,1.62,0.781,2.4,2.461,2.4h0.84c1.68,0,2.459-0.78,2.459-2.4v-5.76c0-1.739-0.6-2.52-1.799-3.419l-6.48-4.74
			c-2.879-2.04-3.72-4.02-3.72-7.26v-5.76c0-5.22,2.58-7.8,7.8-7.8h2.699c5.16,0,7.74,2.58,7.74,7.74v7.619h-6.299v-7.38
			c0-1.619-0.781-2.399-2.4-2.399h-0.78c-1.62,0-2.399,0.78-2.399,2.399v4.68c0,1.74,0.6,2.58,1.799,3.42l6.48,4.74
			C206.604,75.285,207.504,77.084,207.504,80.504z"/>
	</g>
	<g>
		<g>
			<g>
				<polygon fill="#EF4136" points="17.894,39.688 44.734,39.688 44.733,22.891 62.626,22.891 62.626,2.63 11.798,2.63 0,22.891 
					17.893,22.891 				"/>
			</g>
			<g>
				<polygon fill="#EF4136" points="44.733,57.582 17.893,57.582 17.893,74.378 0,74.341 0,94.639 50.996,94.639 62.626,74.378 
					44.733,74.378 				"/>
			</g>
		</g>
	</g>
</g>
</svg>
